<?xml version="1.0" encoding="UTF-8" standalone="no"?>
<!-- Created with Inkscape (http://www.inkscape.org/) -->

<svg
   xmlns:dc="http://purl.org/dc/elements/1.1/"
   xmlns:cc="http://creativecommons.org/ns#"
   xmlns:rdf="http://www.w3.org/1999/02/22-rdf-syntax-ns#"
   xmlns:svg="http://www.w3.org/2000/svg"
   xmlns="http://www.w3.org/2000/svg"
   xmlns:sodipodi="http://sodipodi.sourceforge.net/DTD/sodipodi-0.dtd"
   xmlns:inkscape="http://www.inkscape.org/namespaces/inkscape"
   width="4.2333298mm"
   height="4.2333398mm"
   viewBox="0 0 4.2333298 4.2333398"
   version="1.1"
   id="svg33"
   inkscape:version="0.92.2 2405546, 2018-03-11"
   sodipodi:docname="drawing.svg">
  <defs
     id="defs27" />
  <sodipodi:namedview
     id="base"
     pagecolor="#ffffff"
     bordercolor="#666666"
     borderopacity="1.0"
     inkscape:pageopacity="0.0"
     inkscape:pageshadow="2"
     inkscape:zoom="0.35"
     inkscape:cx="-29.694488"
     inkscape:cy="519.42859"
     inkscape:document-units="px"
     inkscape:current-layer="layer1"
     showgrid="false"
     fit-margin-top="0"
     fit-margin-left="0"
     fit-margin-right="0"
     fit-margin-bottom="0"
     inkscape:window-width="1920"
     inkscape:window-height="1024"
     inkscape:window-x="0"
     inkscape:window-y="27"
     inkscape:window-maximized="1" />
  <metadata
     id="metadata30">
    <rdf:RDF>
      <cc:Work
         rdf:about="">
        <dc:format>image/svg+xml</dc:format>
        <dc:type
           rdf:resource="http://purl.org/dc/dcmitype/StillImage" />
        <dc:title></dc:title>
      </cc:Work>
    </rdf:RDF>
  </metadata>
  <g
     inkscape:label="Layer 1"
     inkscape:groupmode="layer"
     id="layer1"
     transform="translate(-113.69,-282.03214)">
    <path
       d="m 115.23264,283.37256 c 0.15004,0.12665 0.39215,0.25868 0.6023,0.34105 -0.18077,-0.13123 -0.36065,-0.27915 -0.54021,-0.47276 0.14946,-0.31882 0.32792,-0.7592 0.51191,-1.20871 0.29996,0.76674 0.85906,1.92063 1.60805,3.28969 -0.20347,-0.11177 -0.38784,-0.17542 -0.57819,-0.22458 0.0631,0.036 0.2122,0.11742 0.30788,0.18285 0.15115,0.10337 0.29102,0.21641 0.42256,0.32465 0.11741,0.21597 0.23626,0.43639 0.35639,0.66073 -0.59743,-0.34606 -1.178,-0.62638 -1.65365,-0.71296 0.15572,-0.86412 -0.45376,-1.37394 -0.80003,-0.82391 -0.13333,0.21176 -0.16939,0.56068 -0.10617,0.81996 -0.60137,0.11585 -1.18977,0.44013 -1.67348,0.71691 0.56342,-1.02133 1.13306,-2.05668 1.54264,-2.89292 z"
       id="path2"
       inkscape:connector-curvature="0"
       style="stroke-width:0.00826982" />
  </g>
</svg>
